<svg xmlns="http://www.w3.org/2000/svg" width="32" height="38" viewBox="0 0 32 38" fill="none">
  <path d="M30.1262 21.0569C28.8775 19.5842 26.9779 18.5828 24.4287 18.0518C26.2952 17.6406 27.738 16.7535 28.7572 15.3907C29.7755 14.0278 30.2856 12.3173 30.2856 10.26C30.2856 7.03741 29.2049 4.52142 27.0445 2.71272C24.8841 0.904617 21.8751 -3.05176e-05 18.017 -3.05176e-05H0V20.5467C0.764402 20.4977 3.42023 20.3662 7.73395 20.5482V6.80712H8.63026V6.98907C9.55966 6.59356 12.2286 5.66545 14.2318 7.03116C16.6964 8.71166 19.6094 7.1431 19.6094 7.1431L19.4972 13.7528C19.4972 13.7528 16.6208 14.6509 14.568 13.7528C11.8309 12.5556 9.55577 13.1201 8.63026 13.4548V20.589C10.2356 20.6691 12.0453 20.792 14.0496 20.9753C23.0649 21.7996 30.371 28.5728 20.3295 33.5399C15.6727 35.8438 1.89059 37.3606 0 37.56V37.6235H17.9646C22.5746 37.6235 26.0662 36.729 28.4397 34.9398C30.8128 33.1502 32 30.5004 32 26.9901C32 24.507 31.3756 22.5296 30.1262 21.0569Z" fill="#2C7983"/>
</svg>